<svg width="922" height="611" viewBox="0 0 922 611" fill="none" xmlns="http://www.w3.org/2000/svg">
<rect width="922" height="611" fill="white"/>
<path opacity="0.08" d="M855.688 280.146C852.504 228.897 823.045 180.017 779.737 142.745C754.402 120.945 724.245 102.026 691.562 87.5104C657.657 72.4427 620.77 55.5437 580.537 53.7259C570.61 53.2815 560.482 53.8336 550.796 56.2035C513.748 65.2657 589 92.8427 598.847 96.8957C494.042 66.666 385.569 35.992 272.637 41.6878C250.862 42.7785 228.335 45.4581 209.555 54.8031C190.762 64.148 176.658 81.6664 180.244 98.6328C183.2 112.664 196.78 128.095 185.147 139.379C181.816 142.611 176.993 144.577 172.238 146.3C147.857 155.147 121.34 160.102 98.3561 171.184C62.7718 188.339 39.2773 218.892 29.1488 250.724C19.0202 282.542 20.9814 315.708 26.8517 347.701C37.9071 407.932 63.5106 467.354 112.165 513.285C181.668 578.888 161.704 585 402.157 585C779.737 585 676.866 578.592 760.931 493.948C773.396 481.399 784.734 467.543 788.804 452.058C792.874 436.573 788.388 419.148 773.423 409.386C769.393 406.76 764.222 403.986 764.463 399.758C764.799 394.036 774.028 391.895 781.094 390.521C827.371 381.594 852.262 339.353 855.473 301.798C856.091 294.554 856.158 287.323 855.715 280.146H855.688Z" fill="#1F69FF"/>
<path d="M297.283 491.028C295.948 486.371 289.29 459.938 286.621 454.387C283.953 448.836 281.297 442.391 281.297 442.391L269.301 416.55L223.774 415.077L222.226 421.963L208.896 492.136C208.896 492.136 199.795 508.574 198.675 513.899C197.568 519.223 190.896 545.429 190.896 545.429C190.896 545.429 188.228 546.764 188.681 548.765C189.084 550.552 189.826 555.008 189.99 555.914C188.593 558.772 186.39 563.593 186.239 565.858C186.013 569.194 188.014 574.078 190.242 575.412C192.457 576.746 199.569 572.529 201.117 568.3C202.061 565.745 201.935 561.642 201.696 558.81C202.502 558.696 202.892 558.533 202.892 558.533C202.892 558.533 205.774 552.315 206.668 549.873C207.562 547.431 207.562 541.439 208.669 539.879C209.777 538.33 229.765 500.569 234.435 493.243C239.092 485.918 249.54 449.944 249.54 449.944L274.638 494.364C274.638 494.364 269.755 507.907 268.647 515.46C267.539 523.012 263.763 546.776 263.763 546.776L260.881 549.445L259.332 559.665L258.439 568.766L268.206 570.1L269.755 568.552C269.755 568.552 272.864 568.779 274.198 569.886C275.532 570.994 279.522 571.434 283.084 571.661C286.634 571.888 292.185 570.994 293.305 568.993C294.413 566.991 296.641 567.658 294.413 566.991C292.197 566.324 289.529 565.883 288.635 565.43C287.742 564.99 281.083 560.106 281.083 560.106C281.083 560.106 282.191 556.103 282.191 554.782C282.191 553.46 279.975 550.338 279.749 549.457C279.522 548.564 294.853 502.596 295.734 500.154C296.628 497.712 298.617 495.71 297.283 491.053V491.028Z" fill="#232A3D" stroke="#232A3D" stroke-linecap="round" stroke-linejoin="round"/>
<path d="M233.025 419.81C233.025 419.81 243.762 421.761 254.486 421.598C265.211 421.434 269.931 419.319 269.931 419.319L269.289 416.55L232.534 416.235L233.025 419.81Z" fill="#F7E08E" stroke="#232A3D" stroke-linecap="round" stroke-linejoin="round"/>
<path d="M235.757 336.823L231.553 339.769L233.793 392.773L232.434 417.746C232.434 417.746 250.031 418.954 257.558 418.501C265.085 418.048 269.289 416.55 269.289 416.55C269.289 416.55 267.338 395.643 267.64 389.626C267.942 383.61 259.974 337.73 259.974 337.73C259.974 337.73 255.317 336.232 252.9 336.672C250.496 337.126 235.757 336.823 235.757 336.823Z" fill="white" stroke="#232A3D" stroke-linecap="round" stroke-linejoin="round"/>
<path d="M243.271 353.678L236.651 360.739" stroke="#232A3D" stroke-linecap="round" stroke-linejoin="round"/>
<path d="M251.541 352.318L258.615 360.135" stroke="#232A3D" stroke-linecap="round" stroke-linejoin="round"/>
<path d="M250.345 297.715C250.345 297.715 255.305 301.479 256.211 304.185C257.117 306.891 256.211 309.447 257.117 310.353C258.023 311.259 262.53 313.814 262.832 315.312C263.134 316.81 260.73 318.32 260.73 319.076C260.73 319.831 262.53 327.647 262.089 329.309C261.636 330.958 255.015 332.015 255.015 332.015C255.015 332.015 253.656 338.787 252.762 344.2C251.856 349.612 248.243 355.175 245.839 354.584C243.435 353.98 235.908 337.591 235.757 336.836C235.606 336.081 234.548 330.668 234.548 330.668C234.548 330.668 233.34 325.558 232.144 324.048C230.949 322.537 227.928 315.476 229.589 312.316C231.238 309.157 237.406 301.038 241.773 298.773C246.141 296.52 250.345 297.715 250.345 297.715Z" fill="white" stroke="#232A3D" stroke-linecap="round" stroke-linejoin="round"/>
<path d="M250.345 297.715C250.345 297.715 242.076 301.026 241.924 302.083C241.773 303.14 245.688 305.998 244.933 306.602C244.178 307.206 240.867 311.259 240.867 311.259L243.271 317.729L241.471 318.031C241.471 318.031 241.32 315.627 238.614 316.231C235.908 316.835 234.851 319.995 235.908 322.399C236.965 324.803 240.867 326.313 240.867 326.313C240.867 326.313 238.916 329.019 237.406 330.077C235.895 331.134 234.548 330.681 234.548 330.681C234.548 330.681 226.128 320.901 223.572 316.546C221.017 312.178 222.213 306.463 225.083 303.153C227.94 299.843 233.353 298.345 233.353 298.345C233.353 298.345 230.949 295.941 233.202 295.487C235.455 295.034 237.859 294.883 237.859 294.883C237.859 294.883 236.65 287.067 243.724 288.414C250.798 289.773 252.749 295.185 250.345 297.741V297.715Z" fill="#232A3D" stroke="#232A3D" stroke-linecap="round" stroke-linejoin="round"/>
<path d="M255.002 332.015C255.002 332.015 251.692 331.713 249.892 331.26C248.092 330.807 247.639 329.901 247.639 329.901C247.639 329.901 248.394 332.758 249.59 333.664C250.786 334.57 254.109 335.615 254.109 335.615L255.015 332.003L255.002 332.015Z" fill="#232A3D" stroke="#232A3D" stroke-linecap="round" stroke-linejoin="round"/>
<path d="M254.549 320.876C254.549 320.876 255.305 321.782 258.917 321.027" stroke="#232A3D" stroke-linecap="round" stroke-linejoin="round"/>
<path d="M255.154 305.683C255.154 305.683 253.203 304.185 251.239 306.74" stroke="#232A3D" stroke-linecap="round" stroke-linejoin="round"/>
<path d="M254.977 311.121C255.217 312.039 255.053 312.883 254.612 313.009C254.172 313.135 253.618 312.467 253.379 311.536C253.14 310.605 253.303 309.774 253.744 309.648C254.184 309.522 254.738 310.189 254.977 311.121Z" fill="#232A3D"/>
<path d="M210.205 346.176C210.205 346.176 193.338 386.316 193.187 388.72C193.036 391.124 195.893 395.039 199.808 396.096C203.723 397.153 206.882 392.937 206.882 392.937L214.107 383.761L210.218 346.176H210.205Z" fill="#9B51E0" stroke="#232A3D" stroke-linecap="round" stroke-linejoin="round"/>
<path d="M233.969 337.969C233.969 337.969 238.614 355.629 238.614 371.728C238.614 387.826 238.01 406.619 237.406 409.778C236.802 412.938 231.842 451.744 231.842 451.744C231.842 451.744 228.683 453.846 219.054 449.491C209.425 445.123 205.069 441.372 205.069 441.372L214.85 389.022C214.85 389.022 209.45 346.78 210.205 346.176C210.96 345.572 233.969 337.969 233.969 337.969Z" fill="#9B51E0" stroke="#232A3D" stroke-linecap="round" stroke-linejoin="round"/>
<path d="M327.542 334.696L333.307 328.101C333.307 328.101 344.22 322.034 344.535 321.794C344.849 321.555 349.381 319.768 350.111 320.322C350.841 320.863 350.753 321.253 350.186 321.883C349.62 322.499 345.176 324.601 344.849 324.765C344.522 324.929 342.483 326.716 342.483 326.716C342.483 326.716 345.579 331.537 345.818 332.317C346.058 333.098 346.951 334.495 345.818 335.741C344.686 336.987 343.301 337.365 342.168 338.145C341.035 338.926 339.172 338.296 339.172 338.296C339.172 338.296 337.712 340.235 335.623 340.625C333.521 341.015 331.595 341.279 331.595 341.279L327.517 334.696H327.542Z" fill="white" stroke="#232A3D" stroke-linecap="round" stroke-linejoin="round"/>
<path d="M332.01 330.215C332.01 330.215 336.668 327.685 336.932 327.685C337.196 327.685 340.318 327.522 340.922 327.849C341.514 328.176 343.804 333.224 343.893 333.551C343.981 333.878 343.804 334.281 342.709 334.281C341.614 334.281 339.323 332.166 339.323 332.166C339.323 332.166 337.964 334.608 336.265 335.099C334.566 335.59 332.023 334.445 332.023 334.445" fill="white"/>
<path d="M332.01 330.215C332.01 330.215 336.668 327.685 336.932 327.685C337.196 327.685 340.318 327.522 340.922 327.849C341.514 328.176 343.804 333.224 343.893 333.551C343.981 333.878 343.804 334.281 342.709 334.281C341.614 334.281 339.323 332.166 339.323 332.166C339.323 332.166 337.964 334.608 336.265 335.099C334.566 335.59 332.023 334.445 332.023 334.445" stroke="#232A3D" stroke-linecap="round" stroke-linejoin="round"/>
<path d="M337.586 334.872L338.795 336.66" stroke="#232A3D" stroke-linecap="round" stroke-linejoin="round"/>
<path d="M255.607 336.823C255.607 336.823 259.521 386.014 261.17 395.492C262.819 404.97 281.02 448.295 281.02 448.295L287.641 443.487C287.641 443.487 288.547 442.429 284.935 434.008C281.322 425.588 273.808 407.538 273.808 407.538L273.354 395.353L277.118 368.581C277.118 368.581 296.376 373.389 297.874 373.842C299.372 374.295 329.417 348.316 329.417 348.316L323.287 335.942L296.062 354.748L276.061 340.461C276.061 340.461 274.701 338.812 273.657 338.359C272.612 337.906 255.607 336.861 255.607 336.861V336.823Z" fill="#9B51E0" stroke="#232A3D" stroke-linecap="round" stroke-linejoin="round"/>
<path d="M277.118 368.568L278.767 352.62" stroke="#232A3D" stroke-linecap="round" stroke-linejoin="round"/>
<path d="M323.3 335.917L327.504 332.758L333.181 342.878L328.662 346.339L323.3 335.917Z" fill="white" stroke="#232A3D" stroke-linecap="round" stroke-linejoin="round"/>
<path d="M215.907 382.477C215.907 382.477 205.145 382.678 202.678 382.678C200.211 382.678 196.837 383.597 194.27 386.681C191.702 389.752 191.501 395.291 193.25 400.212C195 405.134 200.739 403.699 203.509 403.699C206.278 403.699 218.89 400.829 218.89 400.829C218.89 400.829 220.023 397.141 220.023 393.554C220.023 389.966 217.845 385.322 217.455 384.516C217.052 383.71 215.932 382.477 215.932 382.477H215.907Z" fill="#9B51E0" stroke="#232A3D" stroke-linecap="round" stroke-linejoin="round"/>
<path d="M219.708 383.295C219.708 383.295 217.657 382.376 216.738 382.578C215.819 382.779 213.05 382.376 212.232 384.529C211.413 386.681 210.079 391.917 211.514 395.404C212.949 398.89 219.003 397.871 219.507 397.871C220.01 397.871 221.76 396.436 221.76 393.566C221.76 390.696 221.659 388.229 221.659 388.229L219.708 383.308V383.295Z" fill="white" stroke="#232A3D" stroke-linecap="round" stroke-linejoin="round"/>
<path d="M216.322 388.531C216.322 388.531 216.222 391.917 217.241 393.554C218.261 395.19 219.809 397.04 219.809 397.04" fill="white"/>
<path d="M216.322 388.531C216.322 388.531 216.222 391.917 217.241 393.554C218.261 395.19 219.809 397.04 219.809 397.04" stroke="#232A3D" stroke-linecap="round" stroke-linejoin="round"/>
<path d="M230.168 372.105C230.168 372.105 225.398 377.354 224.441 378.147C223.484 378.94 218.714 381.646 217.443 384.516C216.171 387.386 215.529 390.407 217.443 392.156C219.356 393.906 225.549 389.866 225.549 389.866C225.549 389.866 226.342 391.451 227.462 391.451C228.582 391.451 235.581 386.58 235.895 386.102C236.21 385.624 239.231 380.375 239.08 379.104C238.929 377.832 234.939 374.962 233.995 374.169C233.051 373.376 230.181 372.105 230.181 372.105H230.168Z" fill="white" stroke="#232A3D" stroke-linecap="round" stroke-linejoin="round"/>
<path d="M230.798 376.712C230.798 376.712 235.417 381.331 235.732 382.603C236.046 383.874 235.895 386.102 235.895 386.102" stroke="#232A3D" stroke-linecap="round" stroke-linejoin="round"/>
<path d="M227.701 379.708C227.701 379.708 232.321 384.327 232.824 385.145C233.34 385.964 233.441 387.713 233.441 387.713" stroke="#232A3D" stroke-linecap="round" stroke-linejoin="round"/>
<path d="M225.65 383.509C225.65 383.509 230.986 388.128 231.49 388.733C232.006 389.349 231.188 389.652 231.188 389.652" stroke="#232A3D" stroke-linecap="round" stroke-linejoin="round"/>
<path d="M225.549 389.866C225.549 389.866 225.851 388.33 226.782 388.431C227.714 388.531 228.318 388.947 228.318 388.947" stroke="#232A3D" stroke-linecap="round" stroke-linejoin="round"/>
<path d="M239.08 379.104C239.08 379.104 242.063 380.74 242.164 381.659C242.264 382.578 239.193 386.882 237.758 386.064C236.323 385.246 237.041 383.597 237.041 383.597C237.041 383.597 238.765 380.022 239.08 379.091V379.104Z" fill="white" stroke="#232A3D" stroke-linecap="round" stroke-linejoin="round"/>
<path d="M196.611 380.513L200.651 372.105C200.651 372.105 206.593 370.091 207.386 370.091C208.179 370.091 209.853 370.658 209.853 372.332C209.853 374.006 209.966 374.572 209.966 374.572C209.966 374.572 212.32 379.506 212.32 380.513C212.32 381.52 210.192 382.527 209.399 382.867C208.606 383.207 207.939 384.667 205.472 385.674C203.005 386.681 200.651 386.681 200.651 386.681L196.611 380.513Z" fill="white" stroke="#232A3D" stroke-linecap="round" stroke-linejoin="round"/>
<path d="M204.906 378.386L207.713 381.973" stroke="#232A3D" stroke-linecap="round" stroke-linejoin="round"/>
<path d="M197.794 378.248C198.272 376.095 199.909 373.603 200.639 372.105C200.865 371.652 206.58 369.638 207.373 370.091C208.153 370.544 207.826 372.445 207.826 372.445C207.826 372.445 209.173 376.485 208.493 377.266C207.813 378.046 207.146 377.039 206.479 376.485C205.812 375.919 204.465 373.099 204.465 373.099C204.465 373.099 205.359 377.392 204.918 378.399C204.465 379.406 202.678 380.639 200.765 380.526" fill="white"/>
<path d="M197.794 378.248C198.272 376.095 199.909 373.603 200.639 372.105C200.865 371.652 206.58 369.638 207.373 370.091C208.153 370.544 207.826 372.445 207.826 372.445C207.826 372.445 209.173 376.485 208.493 377.266C207.813 378.046 207.146 377.039 206.479 376.485C205.812 375.919 204.465 373.099 204.465 373.099C204.465 373.099 205.359 377.392 204.918 378.399C204.465 379.406 202.678 380.639 200.765 380.526" stroke="#232A3D" stroke-linecap="round" stroke-linejoin="round"/>
<path d="M192.382 383.647L196.611 380.513L201.469 388.028L196.926 390.533L192.382 383.647Z" fill="white" stroke="#232A3D" stroke-linecap="round" stroke-linejoin="round"/>
<path d="M52.0229 516.467L36.9688 519.236C36.9688 519.236 29.5675 524.862 27.8431 526.272C26.1187 527.694 24.8096 530.375 24.7593 530.904C24.7089 531.433 24.3942 536.505 22.8209 536.354C21.2475 536.203 18.7426 523.817 18.4154 521.854C18.0881 519.89 19.5356 517.562 20.1776 516.391C20.8195 515.22 25.7033 511.998 26.6348 509.619C27.5662 507.24 27.4152 503.363 27.9816 502.885C28.548 502.407 33.8597 502.067 35.7352 502.747C38.9701 503.942 41.3994 506.107 41.9155 506.158C42.4441 506.208 50.2356 505.73 50.2356 505.73L52.0229 516.467Z" fill="white" stroke="#232A3D" stroke-linecap="round" stroke-linejoin="round"/>
<path d="M23.639 524.296C23.9285 523.087 31.5563 515.208 34.7283 511.457C37.7995 507.844 38.8568 504.547 38.9324 504.32C38.0135 503.766 36.931 503.2 35.7478 502.759C33.8723 502.067 28.5606 502.419 27.9942 502.898C27.4152 503.376 27.5788 507.253 26.6473 509.632C25.7159 512.011 20.8321 515.233 20.1902 516.404C19.5482 517.574 18.0881 519.903 18.428 521.866C18.7678 523.83 21.2727 536.216 22.8335 536.367C24.4068 536.518 24.7215 531.445 24.7719 530.917C24.7719 530.917 23.3621 525.504 23.6516 524.296H23.639Z" fill="#1F69FF" stroke="#232A3D" stroke-linecap="round" stroke-linejoin="round"/>
<path d="M27.9816 502.885L18 504.207L18.3399 506.183L27.2767 506.51L27.9816 502.885Z" fill="#1F69FF" stroke="#232A3D" stroke-linecap="round" stroke-linejoin="round"/>
<path d="M97.1603 454.89L96.3169 495.66C96.3169 495.66 81.0236 498.001 74.2266 500.33C67.4295 502.658 49.1657 505.214 49.1657 505.214C49.1657 505.214 48.5237 510.311 49.5936 513.924C50.6635 517.536 52.1362 519.45 52.1362 519.45C52.1362 519.45 87.1787 517.536 90.3632 517.109C93.5478 516.681 108.841 514.767 109.898 514.138C110.956 513.496 124.122 475.483 124.122 475.483L97.1477 454.878L97.1603 454.89Z" fill="#232A3D" stroke="#232A3D" stroke-linecap="round" stroke-linejoin="round"/>
<path d="M165.496 540.621L169.7 555.336C169.7 555.336 176.006 562.17 177.579 563.744C179.153 565.317 181.96 566.374 182.488 566.374C183.017 566.374 188.089 566.198 188.089 567.772C188.089 569.345 176.006 573.033 174.08 573.549C172.154 574.078 169.7 572.844 168.479 572.328C167.258 571.799 163.57 567.243 161.115 566.551C158.661 565.846 154.809 566.374 154.28 565.846C153.752 565.317 152.896 560.068 153.399 558.142C154.28 554.819 156.206 552.189 156.206 551.66C156.206 551.131 154.985 543.428 154.985 543.428L165.496 540.621Z" fill="white" stroke="#232A3D" stroke-linecap="round" stroke-linejoin="round"/>
<path d="M176.006 568.137C174.785 567.96 166.2 561.126 162.16 558.331C158.271 555.625 154.885 554.882 154.646 554.832C154.18 555.801 153.714 556.934 153.399 558.155C152.896 560.081 153.752 565.342 154.28 565.858C154.809 566.374 158.661 565.858 161.115 566.563C163.57 567.268 167.245 571.825 168.479 572.341C169.7 572.869 172.154 574.09 174.08 573.562C176.006 573.033 188.089 569.358 188.089 567.784C188.089 566.211 183.004 566.387 182.488 566.387C182.488 566.387 177.227 568.313 176.006 568.137Z" fill="#1F69FF" stroke="#232A3D" stroke-linecap="round" stroke-linejoin="round"/>
<path d="M154.281 565.858L156.559 575.664L158.485 575.135L157.956 566.211L154.281 565.858Z" fill="#1F69FF" stroke="#232A3D" stroke-linecap="round" stroke-linejoin="round"/>
<path d="M104.159 420.276C104.159 420.276 93.9632 428.772 92.2639 439.383C90.5646 450.007 98.205 464.444 110.956 471.669C123.706 478.894 139.629 488.448 139.629 488.448C139.629 488.448 143.871 510.11 145.57 516.265C147.27 522.42 154.067 544.511 154.067 544.511L168.089 541.54C168.089 541.54 162.777 495.031 161.933 490.575C161.09 486.119 161.933 479.322 159.806 476.553C157.679 473.796 139 448.307 139 448.307L143.67 434.713C143.67 434.713 143.67 430.044 139.629 431.315C135.589 432.586 122.423 434.071 122.423 434.071L104.159 420.263V420.276Z" fill="#232A3D" stroke="#232A3D" stroke-linecap="round" stroke-linejoin="round"/>
<path d="M122.422 353.753C122.422 353.753 110.679 361.582 109.747 364.704C108.803 367.838 119.288 400.539 119.288 400.539L102.069 420.729C102.069 420.729 108.174 430.585 117.413 435.443C126.652 440.289 133.852 441.548 133.852 441.548L140.737 435.292L139.327 442.643C139.327 442.643 141.366 442.329 143.393 441.397C145.432 440.453 152.632 438.263 152.632 438.263L153.097 414.473L158.887 406.027C158.887 406.027 167.648 418.073 170.153 416.676C172.658 415.266 200.047 391.326 200.047 391.326L193.477 382.88L172.821 394.46C172.821 394.46 166.251 377.555 165.47 375.365C164.69 373.175 163.595 366.605 161.87 365.509C160.146 364.414 147.634 357.366 147.634 357.366C147.634 357.366 132.605 351.11 122.435 353.766L122.422 353.753Z" fill="#1F69FF" stroke="#232A3D" stroke-linecap="round" stroke-linejoin="round"/>
<path d="M163.733 387.059C164.111 390.747 164.036 392.924 163.117 396.172C161.392 402.276 158.887 406.027 158.887 406.027" stroke="#232A3D" stroke-linecap="round" stroke-linejoin="round"/>
<path d="M162.651 378.789C162.651 378.789 163.054 381.357 163.331 383.446" stroke="#232A3D" stroke-linecap="round" stroke-linejoin="round"/>
<path d="M137.452 361.268C137.452 361.268 141.366 371.287 143.556 380.211C145.746 389.135 148.1 403.85 148.1 403.85C148.1 403.85 160.687 390.507 160.801 383.068C160.864 378.776 157.49 368.644 156.244 366.139C154.998 363.634 150.139 357.995 149.674 357.378C149.208 356.749 138.245 349.713 137.313 351.903C136.369 354.093 135.752 356.598 137.464 361.293L137.452 361.268Z" fill="white" stroke="#232A3D" stroke-linecap="round" stroke-linejoin="round"/>
<path d="M147.156 359.694L141.681 367.372" stroke="#232A3D" stroke-linecap="round" stroke-linejoin="round"/>
<path d="M150.127 361.268L153.261 369.563L153.576 364.553" stroke="#232A3D" stroke-linecap="round" stroke-linejoin="round"/>
<path d="M157.176 316.344C157.176 316.344 161.405 320.41 162.5 323.229C163.595 326.049 161.871 327.773 163.28 330.278C164.69 332.783 167.346 334.029 167.346 335.603C167.346 337.176 165.156 338.107 165.156 338.107C165.156 338.107 162.5 346.402 161.871 347.963C161.241 349.524 160.927 349.209 159.215 349.373C157.49 349.524 155.615 349.222 155.615 349.222C155.615 349.222 152.33 353.136 151.071 356.573C149.812 360.009 148.251 366.592 148.251 366.592L147.156 359.707L131.133 344.653L151.537 315.262C151.537 315.262 154.822 315.262 157.176 316.357V316.344Z" fill="white" stroke="#232A3D" stroke-linecap="round" stroke-linejoin="round"/>
<path d="M155.602 349.209C155.602 349.209 153.412 348.429 152.002 347.334C150.593 346.239 149.812 345.609 149.812 345.609L153.097 352.494L155.602 349.209Z" fill="#232A3D" stroke="#232A3D" stroke-miterlimit="10"/>
<path d="M158.585 337.944C158.585 337.944 159.215 339.819 162.185 340.449" stroke="#232A3D" stroke-miterlimit="10"/>
<path d="M160.763 329.636C160.939 330.656 160.637 331.562 160.083 331.663C159.529 331.763 158.938 331.008 158.761 329.989C158.585 328.969 158.887 328.063 159.441 327.962C159.995 327.861 160.587 328.617 160.763 329.636Z" fill="#232A3D"/>
<path d="M157.641 326.2C157.641 326.2 158.887 323.846 161.556 324.954" stroke="#232A3D" stroke-miterlimit="10"/>
<path d="M97.689 414.121L98.91 418.451L89.1676 421.572L88.2109 417.507L97.689 414.121Z" fill="white" stroke="#232A3D" stroke-linecap="round" stroke-linejoin="round"/>
<path d="M123.958 354.408C123.958 354.408 112.454 355.893 111.094 356.85C109.735 357.794 75.8881 380.677 75.8881 382.439C75.8881 384.201 85.7689 418.866 85.7689 418.866L98.4945 414.536L94.7058 389.085L126.387 375.818" fill="#1F69FF"/>
<path d="M123.958 354.408C123.958 354.408 112.454 355.893 111.094 356.85C109.735 357.794 75.8881 380.677 75.8881 382.439C75.8881 384.201 85.7689 418.866 85.7689 418.866L98.4945 414.536L94.7058 389.085L126.387 375.818" stroke="#232A3D" stroke-linecap="round" stroke-linejoin="round"/>
<path d="M86.134 432.725V441.687H107.331V432.725C107.331 430.849 105.808 429.326 103.932 429.326H89.5451C87.6696 429.326 86.1466 430.849 86.1466 432.725H86.134ZM105.707 441.334H87.7577V434.134C87.7577 432.775 88.8654 431.667 90.2248 431.667H103.252C104.612 431.667 105.719 432.775 105.719 434.134V441.334H105.707Z" fill="#F7E08E" stroke="#232A3D" stroke-linecap="round" stroke-linejoin="round"/>
<path d="M126.589 440.806H66.8631C64.861 440.806 63.238 442.428 63.238 444.431V482.192C63.238 484.194 64.861 485.817 66.8631 485.817H126.589C128.591 485.817 130.214 484.194 130.214 482.192V444.431C130.214 442.428 128.591 440.806 126.589 440.806Z" fill="#F7E08E" stroke="#232A3D" stroke-linecap="round" stroke-linejoin="round"/>
<path d="M98.9099 418.451C98.9099 418.451 102.434 427.111 102.837 428.609C103.24 430.094 103.114 435.38 103.114 435.783C103.114 436.186 102.031 437.143 100.672 437.143C99.3127 437.143 98.5071 435.657 98.5071 435.657C98.5071 435.657 92.8177 435.519 92.0122 435.116C91.194 434.713 90.25 432.271 90.1115 431.327C89.9731 430.383 90.3884 424.556 90.3884 424.556L90.25 421.031L98.9099 418.463V418.451Z" fill="white" stroke="#232A3D" stroke-linecap="round" stroke-linejoin="round"/>
<path d="M157.176 316.344C157.176 316.344 154.041 319.164 154.52 321.669C154.985 324.173 155.464 326.213 152.481 328.868C149.51 331.524 148.73 331.524 148.73 331.524C148.73 331.524 145.595 328.075 142.94 330.58C140.284 333.085 144.5 337.78 145.595 338.246L146.69 338.712C146.69 338.712 142.94 339.807 142.94 342.777C142.94 345.748 144.979 348.567 144.979 353.577C144.979 358.587 140.913 363.118 134.959 363.747C129.018 364.377 123.379 361.708 122.435 358.901C121.491 356.082 120.081 354.521 115.386 353.741C110.691 352.96 106.147 347.006 107.406 342.311C108.652 337.616 113.511 333.551 116.481 334.168C119.452 334.784 123.052 333.702 123.052 331.512C123.052 329.322 122.108 317.578 129.471 312.883C136.822 308.188 144.966 308.968 144.966 308.968C144.966 308.968 149.661 301.768 155.3 302.234C160.939 302.7 165.47 307.558 162.815 310.995C160.159 314.444 160.31 314.595 163.129 315.539C165.949 316.483 167.044 320.385 165.319 321.794C163.595 323.204 162.5 323.204 162.5 323.204C162.5 323.204 160.461 318.195 157.176 316.319V316.344Z" fill="#232A3D" stroke="#232A3D" stroke-linecap="round" stroke-linejoin="round"/>
<path d="M738 325C738 320.582 741.582 317 746 317H896C900.418 317 904 320.582 904 325V581H738V325Z" fill="#232A3D"/>
<path d="M573 412C573 407.582 576.582 404 581 404H738V581H573V412Z" fill="#232A3D"/>
<path d="M407 501C407 496.582 410.582 493 415 493H573V581H407V501Z" fill="#232A3D"/>
<g clip-path="url(#clip0_4_2)">
<path d="M489.674 417.6L448.953 410.4V463.601C448.953 466.03 450.919 468 453.344 468H523.609C526.034 468 528 466.03 528 463.601V444L489.674 417.6Z" fill="#185C37"/>
<path d="M489.674 372H453.344C450.919 372 448.953 373.97 448.953 376.399V396L489.674 420L511.233 427.2L528 420V396L489.674 372Z" fill="#21A366"/>
<path d="M448.953 396H489.674V420H448.953V396Z" fill="#107C41"/>
<path opacity="0.1" d="M478.098 391.2H448.953V451.2H478.098C480.519 451.192 482.481 449.227 482.488 446.801V395.599C482.481 393.173 480.519 391.208 478.098 391.2Z" fill="black"/>
<path opacity="0.2" d="M475.702 393.6H448.953V453.6H475.702C478.124 453.592 480.085 451.627 480.093 449.201V397.999C480.085 395.573 478.124 393.608 475.702 393.6Z" fill="black"/>
<path opacity="0.2" d="M475.702 393.6H448.953V448.8H475.702C478.124 448.792 480.085 446.827 480.093 444.401V397.999C480.085 395.573 478.124 393.608 475.702 393.6Z" fill="black"/>
<path opacity="0.2" d="M473.307 393.6H448.953V448.8H473.307C475.729 448.792 477.69 446.827 477.698 444.401V397.999C477.69 395.573 475.729 393.608 473.307 393.6Z" fill="black"/>
<path d="M429.391 393.6H473.307C475.732 393.6 477.698 395.57 477.698 397.999V442.001C477.698 444.43 475.732 446.4 473.307 446.4H429.391C426.966 446.4 425 444.43 425 442.001V397.999C425 395.57 426.966 393.6 429.391 393.6Z" fill="url(#paint0_linear_4_2)"/>
<path d="M438.598 434.299L447.835 419.959L439.372 405.698H446.18L450.798 414.818C451.224 415.685 451.516 416.328 451.675 416.753H451.734C452.038 416.062 452.357 415.39 452.693 414.739L457.629 405.703H463.879L455.201 419.88L464.099 434.299H457.45L452.115 424.289C451.864 423.863 451.651 423.416 451.478 422.952H451.399C451.243 423.406 451.036 423.841 450.781 424.248L445.289 434.299H438.598Z" fill="white"/>
<path d="M523.609 372H489.674V396H528V376.399C528 373.97 526.034 372 523.609 372Z" fill="#33C481"/>
<path d="M489.674 420H528V444H489.674V420Z" fill="#107C41"/>
</g>
<g clip-path="url(#clip1_4_2)">
<path d="M650.267 382.934C640.439 382.232 630.724 379.781 624.767 376.501C621.373 374.633 618.788 372.336 617.773 370.29L617.17 369.072V330.877V292.682L617.647 291.722C619.782 287.429 626.594 283.56 636.103 281.238C639.331 280.45 643.991 279.665 647.793 279.269C651.675 278.865 661.964 278.927 665.836 279.378C676.128 280.575 684.886 283.257 690.283 286.862C692.364 288.253 694.5 290.478 695.223 292.009L695.844 293.322L695.791 331.402L695.738 369.481L695.24 370.483C694.966 371.034 694.139 372.118 693.401 372.892C688.914 377.604 679.288 381.09 666.661 382.575C664.088 382.878 652.907 383.122 650.267 382.934ZM668.38 350.206C668.342 350.108 666.873 348.812 665.115 347.325C663.357 345.837 661.843 344.551 661.75 344.465C661.657 344.38 661.982 344.078 662.472 343.793C662.961 343.509 663.899 342.718 664.556 342.036C666.477 340.041 667.383 337.577 667.383 334.349C667.383 331.172 666.406 328.608 664.448 326.651C662.475 324.678 660.21 323.83 656.911 323.83C651.825 323.83 647.92 326.769 646.674 331.534C646.245 333.173 646.247 336.484 646.678 337.938C647.802 341.728 650.864 344.481 654.674 345.128C655.963 345.347 656.138 345.441 657.017 346.393C657.54 346.959 658.612 348.088 659.4 348.902L660.832 350.383H664.64C666.735 350.383 668.417 350.303 668.38 350.206ZM655.32 339.644C654.403 339.171 654.056 338.804 653.534 337.751C653.13 336.938 653.061 336.475 653.056 334.554C653.052 332.601 653.115 332.179 653.536 331.331C654.226 329.944 655.176 329.287 656.647 329.181C658.694 329.034 659.875 330.029 660.494 332.42C661.254 335.352 660.419 338.469 658.597 339.503C657.642 340.046 656.216 340.107 655.32 339.644ZM638.44 345.086C642.433 344.336 644.699 342.036 644.699 338.735C644.699 335.806 643.236 334.099 639.192 332.311C636.877 331.287 636.038 330.645 636.038 329.894C636.038 329.272 636.834 328.59 637.76 328.419C638.665 328.252 641.064 328.664 642.481 329.231L643.668 329.706V327.103V324.499L642.379 324.216C641.583 324.041 639.909 323.936 637.997 323.941C635.289 323.941 634.759 324.006 633.74 324.407C630.763 325.578 629.351 327.572 629.374 330.571C629.395 333.378 630.89 335.13 634.612 336.705C636.808 337.635 637.688 338.343 637.688 339.179C637.688 340.957 634.698 341.176 631.532 339.63C630.664 339.206 629.885 338.826 629.8 338.783C629.715 338.741 629.646 339.957 629.646 341.486C629.646 344.253 629.649 344.266 630.154 344.457C632.059 345.174 636.269 345.494 638.44 345.086ZM684.086 342.519V340.171H680.478H676.869V332.103V324.035H673.673H670.476V334.451V344.868H677.281H684.086V342.519ZM661.815 301.358C668.167 300.921 672.928 300.097 677.118 298.71C681.292 297.328 683.757 295.655 684.309 293.832C684.522 293.129 684.506 292.863 684.209 292.092C682.878 288.639 675.439 285.985 664.072 284.91C659.21 284.449 650.367 284.598 645.731 285.219C638.657 286.165 632.916 287.924 630.363 289.926C625.199 293.976 630.66 298.431 643.359 300.527C648.865 301.436 655.999 301.757 661.815 301.358Z" fill="#607390"/>
</g>
<path d="M823.421 190.001C819.463 190.019 815.683 190.359 812.358 190.951C802.56 192.693 800.782 196.338 800.782 203.06V211.938H823.933V214.897H800.782H792.093C785.364 214.897 779.473 218.967 777.63 226.708C775.504 235.581 775.41 241.118 777.63 250.383C779.276 257.279 783.206 262.193 789.934 262.193H797.894V251.55C797.894 243.861 804.506 237.079 812.358 237.079H835.482C841.92 237.079 847.058 231.746 847.058 225.242V203.06C847.058 196.747 841.765 192.005 835.482 190.951C831.505 190.285 827.379 189.982 823.421 190.001ZM810.9 197.141C813.292 197.141 815.245 199.138 815.245 201.594C815.245 204.041 813.292 206.019 810.9 206.019C808.5 206.019 806.556 204.041 806.556 201.594C806.556 199.138 808.5 197.141 810.9 197.141Z" fill="url(#paint1_linear_4_2)"/>
<path d="M849.946 214.897V225.242C849.946 233.261 843.188 240.011 835.482 240.011H812.358C806.023 240.011 800.782 245.466 800.782 251.849V274.03C800.782 280.343 806.238 284.057 812.358 285.868C819.686 288.036 826.714 288.428 835.482 285.868C841.311 284.17 847.058 280.753 847.058 274.03V265.152H823.933V262.193H847.058H858.634C865.363 262.193 867.87 257.471 870.21 250.383C872.627 243.086 872.524 236.068 870.21 226.708C868.547 219.968 865.371 214.897 858.634 214.897H849.946ZM836.94 271.071C839.34 271.071 841.284 273.05 841.284 275.496C841.284 277.952 839.34 279.949 836.94 279.949C834.548 279.949 832.595 277.952 832.595 275.496C832.595 273.05 834.548 271.071 836.94 271.071Z" fill="url(#paint2_linear_4_2)"/>
<defs>
<linearGradient id="paint0_linear_4_2" x1="434.155" y1="390.163" x2="468.643" y2="449.78" gradientUnits="userSpaceOnUse">
<stop stop-color="#18884F"/>
<stop offset="0.5" stop-color="#117E43"/>
<stop offset="1" stop-color="#0B6631"/>
</linearGradient>
<linearGradient id="paint1_linear_4_2" x1="776" y1="190" x2="829.662" y2="235.447" gradientUnits="userSpaceOnUse">
<stop stop-color="#5A9FD4"/>
<stop offset="1" stop-color="#306998"/>
</linearGradient>
<linearGradient id="paint2_linear_4_2" x1="836.383" y1="274.75" x2="817.074" y2="247.858" gradientUnits="userSpaceOnUse">
<stop stop-color="#FFD43B"/>
<stop offset="1" stop-color="#FFE873"/>
</linearGradient>
<clipPath id="clip0_4_2">
<rect width="103" height="96" fill="white" transform="translate(425 372)"/>
</clipPath>
<clipPath id="clip1_4_2">
<rect width="105" height="104" fill="white" transform="translate(604 279)"/>
</clipPath>
</defs>
</svg>
